<?xml version="1.0" standalone="no"?>
<!DOCTYPE svg PUBLIC "-//W3C//DTD SVG 20010904//EN"
 "http://www.w3.org/TR/2001/REC-SVG-20010904/DTD/svg10.dtd">
<svg version="1.0" xmlns="http://www.w3.org/2000/svg"
 width="307.000000pt" height="307.000000pt" viewBox="0 0 307.000000 307.000000"
 preserveAspectRatio="xMidYMid meet">
<metadata>
Created by potrace 1.14, written by Peter Selinger 2001-2017
</metadata>
<g transform="translate(0.000000,307.000000) scale(0.100000,-0.100000)"
fill="#000000" stroke="none">
<path d="M1355 2593 c-260 -50 -449 -148 -611 -315 -89 -92 -149 -179 -202
-290 -39 -83 -81 -226 -88 -298 -13 -129 -14 -131 -47 -158 -182 -152 -313
-296 -367 -405 -27 -56 -32 -75 -28 -117 6 -59 26 -85 86 -112 45 -20 159 -26
250 -12 l44 7 -32 -64 c-42 -82 -47 -145 -17 -191 55 -81 189 -94 412 -38 72
17 137 36 145 40 9 5 24 1 41 -10 57 -41 210 -104 314 -130 93 -23 132 -27
250 -27 121 -1 155 3 250 27 196 50 356 139 498 278 42 42 77 81 77 85 0 5 -8
3 -17 -4 -16 -13 -17 -12 -4 3 7 10 17 16 21 13 4 -3 15 6 24 20 23 35 19 45
-5 15 l-21 -25 14 25 c9 14 18 23 20 20 7 -7 38 20 38 32 0 6 -8 4 -18 -3 -15
-13 -16 -12 -3 3 7 10 17 16 21 13 30 -18 143 282 157 415 2 25 6 59 8 75 2
17 4 44 4 61 1 26 14 41 89 101 184 150 317 295 372 406 27 56 32 75 28 117
-6 59 -26 85 -86 112 -46 21 -145 26 -240 13 l-53 -7 31 61 c43 84 49 146 18
191 -13 19 -41 44 -63 55 -85 41 -282 16 -537 -69 l-106 -36 -79 36 c-43 20
-128 49 -189 64 -96 25 -129 29 -245 28 -74 -1 -143 -3 -154 -5z m83 -20 c-8
-10 -18 -30 -22 -45 -6 -24 -11 -28 -43 -28 -29 0 -34 3 -25 12 22 22 12 32
-10 11 -20 -19 -46 -28 -71 -24 -5 0 5 12 20 25 22 18 41 25 72 24 31 0 48 5
62 21 24 25 39 28 17 4z m57 7 c3 -5 -3 -10 -15 -10 -12 0 -18 5 -15 10 3 6
10 10 15 10 5 0 12 -4 15 -10z m45 0 c12 -8 11 -10 -7 -10 -13 0 -23 5 -23 10
0 13 11 13 30 0z m50 -12 c0 -5 14 -14 30 -20 17 -5 35 -19 41 -29 9 -17 6
-19 -25 -19 -27 0 -36 5 -42 23 -5 12 -7 26 -6 30 1 4 -5 10 -13 13 -8 4 -15
10 -15 15 0 4 7 6 15 3 8 -4 15 -10 15 -16z m-90 -40 c0 -26 -3 -28 -40 -28
-33 0 -38 3 -33 18 11 29 21 38 48 38 21 0 25 -5 25 -28z m61 23 c3 -1 11 -12
17 -26 11 -24 11 -25 -28 -25 -35 0 -40 3 -40 23 0 29 6 36 28 32 9 -2 20 -4
23 -4z m-301 -30 c-19 -16 -43 -29 -52 -28 -20 1 -20 2 24 33 48 33 70 29 28
-5z m455 9 c10 -11 23 -20 28 -20 6 0 2 10 -9 22 -19 21 -19 21 1 13 11 -4 31
-8 45 -10 29 -2 94 -34 86 -42 -3 -3 -20 4 -39 16 -43 26 -60 27 -27 1 l25
-19 -25 5 c-14 4 -43 6 -66 5 -31 -1 -45 4 -64 24 l-23 25 25 0 c14 0 33 -9
43 -20z m932 -8 c64 -35 56 -94 -30 -225 -29 -43 -38 -49 -102 -68 -38 -11
-89 -27 -113 -36 -31 -12 -46 -13 -54 -5 -8 8 -16 5 -29 -11 -19 -22 -19 -22
-35 -2 -8 11 -20 28 -25 38 -16 28 18 21 37 -9 15 -23 18 -24 27 -9 7 14 -5
31 -59 87 -38 38 -98 90 -134 116 l-64 46 32 13 c17 7 84 26 149 43 182 46
340 55 400 22z m-1427 14 c0 -7 -71 -46 -83 -46 -7 1 8 12 33 25 50 27 50 27
50 21z m167 -91 l-10 -45 -55 0 c-54 0 -54 0 -40 23 8 12 20 31 25 42 8 14 23
21 51 23 l39 2 -10 -45z m111 -2 l3 -43 -56 0 c-55 0 -55 0 -49 28 13 52 22
61 62 59 36 -2 37 -3 40 -44z m107 18 c3 -14 8 -34 11 -43 5 -16 -2 -18 -50
-18 l-56 0 0 44 0 44 44 0 c40 -1 45 -4 51 -27z m103 -8 c32 -46 28 -53 -26
-53 l-49 0 -10 46 -11 45 37 -3 c28 -2 41 -10 59 -35z m99 -10 c34 -37 35 -54
5 -48 -9 2 -26 4 -38 4 -13 1 -28 15 -42 40 -12 21 -22 41 -22 44 0 3 15 3 33
1 21 -3 43 -18 64 -41z m-722 -13 c-21 -21 -50 -40 -66 -42 -35 -5 -30 3 33
52 61 49 84 42 33 -10z m93 8 c-29 -35 -42 -43 -74 -45 l-38 -2 44 44 c32 33
52 45 73 45 l30 0 -35 -42z m101 2 c-15 -26 -30 -40 -43 -41 -12 0 -29 -2 -38
-4 -30 -5 -29 10 3 48 25 30 37 37 65 37 l35 0 -22 -40z m604 12 l27 -29 -24
-11 c-23 -10 -28 -8 -56 28 l-32 40 29 0 c19 0 39 -10 56 -28z m57 3 c18 -22
-8 -29 -31 -9 -10 9 -19 20 -19 25 0 11 38 -1 50 -16z m-896 -3 c-71 -57 -95
-73 -104 -70 -12 4 98 88 115 88 5 0 0 -8 -11 -18z m931 8 c3 -5 2 -10 -4 -10
-5 0 -13 5 -16 10 -3 6 -2 10 4 10 5 0 13 -4 16 -10z m-1005 -24 c0 -2 -8 -10
-17 -17 -16 -13 -17 -12 -4 4 13 16 21 21 21 13z m1066 -5 c-4 -5 6 -19 21
-30 20 -15 23 -20 12 -21 -9 0 -27 9 -40 20 -21 17 -22 21 -9 30 19 12 23 13
16 1z m-38 -23 c17 -17 15 -28 -3 -23 -51 16 -50 16 -35 25 20 13 24 12 38 -2z
m-1068 -2 c0 -2 -8 -10 -17 -17 -16 -13 -17 -12 -4 4 13 16 21 21 21 13z
m1184 -25 c-2 -3 -12 3 -22 13 -16 17 -16 18 5 5 12 -7 20 -15 17 -18z m-876
-29 c-18 -42 -23 -44 -22 -9 2 46 2 47 18 41 12 -5 13 -11 4 -32z m128 7 c-19
-99 -10 -89 -83 -89 -35 0 -63 4 -61 8 2 4 11 30 22 57 l18 50 55 2 54 1 -5
-29z m134 -30 l0 -59 -70 0 c-51 0 -68 3 -65 13 2 6 7 29 10 51 3 21 7 42 10
46 3 4 29 8 60 8 l55 0 0 -59z m124 52 c2 -3 6 -23 10 -43 6 -34 4 -38 -23
-53 -17 -8 -46 -15 -66 -15 l-35 0 0 59 0 59 55 0 c31 -1 57 -4 59 -7z m124
-4 c7 -5 10 -12 7 -17 -7 -11 -97 -52 -102 -46 -2 2 -6 19 -10 39 l-5 35 48
-2 c27 -1 55 -5 62 -9z m40 4 c11 -7 11 -9 -1 -14 -9 -3 -18 1 -21 9 -6 16 2
18 22 5z m-795 -64 c-20 -29 -37 -53 -38 -54 0 -1 -20 -4 -44 -7 -48 -6 -50
-13 19 69 30 36 73 58 93 47 4 -2 -9 -27 -30 -55z m137 57 c0 -9 -53 -98 -63
-105 -4 -3 -28 -7 -53 -8 l-45 -1 42 60 c39 56 45 60 80 60 22 0 39 -3 39 -6z
m71 -4 c5 -45 2 -93 -5 -98 -12 -7 -106 -9 -106 -2 0 3 14 29 30 58 24 41 36
52 55 52 14 0 25 -4 26 -10z m790 -37 c56 -77 56 -74 0 -72 -50 2 -51 3 -81
55 -16 30 -30 56 -30 59 0 3 17 5 38 5 34 0 42 -5 73 -47z m102 -24 c39 -48
42 -55 24 -53 -12 1 -30 3 -39 3 -15 1 -98 97 -98 113 0 3 15 2 34 -1 25 -5
45 -20 79 -62z m-1153 53 c0 -2 -21 -28 -46 -58 -33 -38 -54 -54 -71 -54 -23
0 -21 4 27 58 29 33 59 58 70 58 11 0 20 -2 20 -4z m953 -41 c15 -27 27 -51
27 -53 0 -3 -15 -3 -32 -2 -18 1 -45 3 -60 3 -20 1 -29 8 -37 32 -6 18 -11 34
-11 35 0 5 62 32 75 33 6 1 22 -21 38 -48z m242 34 c23 -2 130 -104 120 -114
-3 -2 -32 22 -65 54 -33 33 -60 55 -60 50 0 -5 19 -29 42 -52 42 -42 42 -43
16 -43 -20 0 -38 14 -72 54 -51 59 -56 70 -25 61 12 -4 31 -8 44 -10z m-1318
-62 c-73 -74 -83 -65 -11 11 31 32 58 55 62 52 3 -4 -19 -32 -51 -63z m962 7
l10 -30 -65 0 c-35 0 -64 4 -64 9 0 7 82 48 102 50 3 1 11 -12 17 -29z m-594
-105 c-23 -88 -20 -85 -92 -85 -47 0 -64 3 -61 13 2 6 12 38 22 69 l19 57 56
3 c31 2 59 1 63 -2 4 -3 1 -27 -7 -55z m156 50 c4 -34 -14 -125 -24 -127 -57
-7 -65 -4 -79 26 -8 17 -15 49 -17 71 l-2 40 60 0 c34 0 61 -4 62 -10z m157
-3 c-2 -12 -128 -92 -145 -92 -4 0 2 85 7 106 0 1 32 1 70 1 58 0 70 -3 68
-15z m32 8 c0 -5 -4 -10 -10 -10 -5 0 -10 5 -10 10 0 6 5 10 10 10 6 0 10 -4
10 -10z m124 -27 c4 -21 9 -54 11 -74 l5 -36 -78 1 -77 1 -3 51 -3 51 43 21
c24 12 55 21 70 22 23 0 27 -5 32 -37z m158 -28 c10 -33 17 -65 18 -71 0 -7
-25 -11 -72 -10 l-73 1 -11 60 c-6 34 -9 66 -6 73 2 7 25 11 65 9 l62 -2 17
-60z m119 47 c8 -10 49 -113 49 -124 0 -5 -30 -8 -67 -6 l-68 3 -16 65 c-10
35 -16 67 -14 71 5 7 108 -1 116 -9z m-871 4 c0 -9 -43 -121 -50 -129 -6 -7
-120 -18 -120 -12 0 1 16 34 35 72 l35 69 50 3 c27 1 50 0 50 -3z m1024 -65
c19 -39 32 -72 29 -74 -7 -7 -106 2 -113 11 -9 10 -50 112 -50 123 0 5 23 9
50 9 l50 0 34 -69z m97 9 c15 -25 28 -50 28 -56 1 -17 -66 -35 -77 -20 -15 18
-61 124 -56 129 2 2 21 1 41 -2 30 -5 42 -14 64 -51z m-1378 -20 c-20 -36 -37
-66 -38 -68 -6 -7 -65 -10 -65 -3 0 9 57 100 77 123 9 10 26 17 39 16 23 -2
23 -2 -13 -68z m137 67 c0 -1 -15 -32 -34 -67 -33 -65 -33 -65 -81 -68 l-47
-3 33 58 c45 82 47 83 90 83 22 0 39 -1 39 -3z m1312 -41 c21 -30 25 -42 16
-48 -29 -18 -48 -7 -73 42 l-25 50 26 -2 c19 -2 36 -15 56 -42z m-1511 2 c-12
-18 -31 -50 -43 -70 -13 -23 -29 -38 -40 -38 -20 0 -19 4 14 52 22 33 23 45 1
27 -15 -13 -15 -12 -2 8 8 14 16 18 20 12 5 -8 9 -8 13 0 4 6 4 16 0 23 -4 6
-3 8 4 4 6 -3 13 -2 17 4 3 5 13 10 22 10 12 0 11 -6 -6 -32z m2246 -13 c20
-22 24 -36 19 -63 -13 -80 -98 -204 -236 -342 -86 -87 -192 -180 -204 -180 -3
0 -6 23 -6 52 0 61 -41 219 -77 299 -14 31 -24 61 -22 67 2 5 38 45 79 89 75
78 75 78 155 95 52 12 112 17 174 15 89 -3 95 -4 118 -32z m-1489 -22 l-3 -48
-78 -1 c-50 0 -76 3 -74 10 3 10 135 86 150 86 4 0 7 -21 5 -47z m-860 -47
c-13 -19 -24 -33 -26 -31 -5 4 37 65 44 65 2 0 -6 -15 -18 -34z m1816 -1 c-27
-24 -55 -28 -71 -10 -5 4 -2 5 5 1 6 -4 12 -3 12 1 0 10 45 30 69 32 8 1 1
-10 -15 -24z m-1454 -40 c0 -33 -20 -45 -77 -45 -55 0 -56 1 -47 37 5 18 14
23 53 25 25 2 52 3 59 4 6 0 12 -9 12 -21z m133 3 c-24 -23 -116 -51 -121 -36
-2 5 -1 19 2 31 5 20 12 23 72 24 l67 2 -20 -21z m191 14 c2 -4 1 -14 -4 -22
-8 -13 -13 -11 -32 8 l-22 22 26 0 c15 0 29 -4 32 -8z m176 -27 l0 -35 -77 5
c-42 3 -79 8 -83 10 -4 3 -5 16 -2 30 4 24 7 25 83 25 l79 0 0 -35z m171 18
c0 -10 2 -27 4 -38 7 -37 9 -91 3 -100 -3 -6 -41 -10 -85 -10 l-78 1 0 39 c0
38 2 40 35 46 l35 6 -38 2 c-37 1 -38 2 -35 36 l2 35 78 0 c67 0 78 -2 79 -17z
m173 -25 c4 -24 9 -52 12 -64 4 -17 -2 -25 -30 -38 -42 -20 -126 -28 -127 -12
-2 43 -11 133 -14 144 -3 9 16 12 74 12 l78 0 7 -42z m152 10 c3 -16 4 -30 2
-32 -1 -1 -30 -14 -63 -29 l-60 -26 -12 47 c-19 73 -21 71 57 70 68 -1 69 -2
76 -30z m79 1 c-52 -23 -62 -23 -68 1 -6 24 1 26 61 21 l47 -4 -40 -18z
m-1212 -1 c-3 -13 -13 -29 -21 -35 -9 -7 -11 -13 -5 -13 8 0 7 -13 -3 -44 -14
-41 -18 -44 -57 -48 -66 -7 -68 -4 -39 70 33 88 37 92 87 92 40 0 43 -2 38
-22z m-207 -11 c-20 -82 -74 -164 -91 -138 -6 11 52 143 68 153 21 14 29 8 23
-15z m94 16 c0 -3 -12 -39 -27 -79 -28 -74 -28 -74 -65 -74 -21 0 -38 2 -38 5
0 3 14 39 31 80 31 72 33 75 65 75 19 0 34 -3 34 -7z m1588 -22 c9 -25 7 -32
-14 -52 -28 -26 -27 -26 -47 23 -15 35 -14 38 1 48 30 17 50 11 60 -19z m41
20 c16 -10 6 -31 -15 -31 -8 0 -14 9 -14 20 0 22 7 25 29 11z m-1806 -81 c-20
-44 -40 -80 -45 -80 -5 0 -2 12 5 28 8 15 22 45 32 67 18 39 34 65 41 65 1 0
-14 -36 -33 -80z m1707 -17 c0 -17 -40 -43 -66 -43 -17 0 -26 10 -38 46 l-15
45 42 18 42 19 17 -37 c10 -20 18 -41 18 -48z m-1300 25 c0 -9 -4 -28 -10 -42
-9 -24 -14 -26 -74 -26 l-65 0 15 44 15 45 60 -2 c48 -1 59 -5 59 -19z m520
-22 l0 -41 -82 0 c-46 0 -86 4 -89 8 -3 5 -4 19 -1 33 5 29 34 37 140 40 31 1
32 0 32 -40z m-400 14 c29 -15 37 -24 33 -39 -4 -16 -14 -19 -65 -19 l-61 1
24 19 c22 18 20 18 -14 -1 l-39 -21 7 32 c4 18 9 36 12 41 8 14 64 7 103 -13z
m1066 -24 l13 -37 -67 3 c-86 4 -96 25 -25 56 26 12 52 20 57 19 5 -2 15 -20
22 -41z m302 -11 c28 -57 13 -59 -16 -2 -21 38 -22 31 -6 -23 5 -17 3 -19 -12
-14 -11 4 -25 14 -31 22 -11 13 -9 20 9 39 12 13 24 23 28 23 3 0 16 -20 28
-45z m-1156 5 c-5 -14 -18 -24 -30 -25 -29 -2 -28 9 5 34 31 25 37 23 25 -9z
m718 -14 c0 -9 -10 -13 -25 -12 -14 0 -25 2 -25 4 0 2 36 19 48 21 1 1 2 -5 2
-13z m-865 -6 c3 -5 1 -10 -4 -10 -6 0 -11 5 -11 10 0 6 2 10 4 10 3 0 8 -4
11 -10z m1225 -11 c0 -5 -7 -9 -15 -9 -15 0 -20 12 -9 23 8 8 24 -1 24 -14z
m-700 -24 c0 -17 -11 -25 -102 -74 l-77 -42 0 65 c1 75 -3 73 105 68 52 -3 74
-7 74 -17z m-892 6 c10 -6 12 -19 5 -52 -7 -38 -16 -49 -62 -81 -79 -55 -77
-59 -50 69 13 61 14 62 48 66 20 2 38 4 41 5 3 1 11 -2 18 -7z m150 4 c-7 -7
-128 -85 -132 -85 -4 0 -3 7 8 61 5 24 9 25 67 27 34 1 60 -1 57 -3z m176 -54
c-3 -32 -7 -67 -9 -77 -2 -11 -4 -25 -4 -31 -1 -9 -24 -13 -82 -13 l-80 0 6
38 c3 20 8 55 11 77 9 67 7 65 88 65 l74 0 -4 -59z m65 22 c6 -21 11 -61 11
-90 l0 -51 -32 1 c-18 1 -35 6 -37 10 -1 4 0 43 4 87 6 69 10 80 26 80 12 0
21 -11 28 -37z m117 -35 c-3 -40 -5 -80 -6 -88 0 -11 -12 -16 -40 -17 l-40 -2
0 52 c0 29 5 69 11 90 9 34 13 37 45 37 l36 0 -6 -72z m194 3 c0 -64 -2 -70
-27 -87 -20 -13 -47 -19 -93 -19 -56 0 -65 2 -64 18 1 9 2 49 3 87 l1 70 90 0
90 0 0 -69z m235 59 c-3 -5 -13 -10 -21 -10 -8 0 -14 5 -14 10 0 6 9 10 21 10
11 0 17 -4 14 -10z m306 -12 c0 -13 2 -43 5 -68 4 -42 2 -47 -29 -67 -35 -24
-101 -31 -113 -12 -3 6 -8 34 -11 63 -2 28 -6 57 -8 63 -7 20 46 42 103 43 47
0 52 -2 53 -22z m141 15 c15 -8 -5 -33 -58 -73 -59 -44 -59 -45 -69 32 l-6 46
63 0 c35 0 66 -2 70 -5z m-1610 -108 c-16 -62 -21 -70 -43 -72 l-25 -2 21 81
c16 59 27 83 41 88 26 10 28 -10 6 -95z m114 83 c-3 -13 -11 -51 -17 -85 -11
-53 -16 -63 -33 -64 -12 0 -31 -2 -43 -5 -27 -5 -27 -2 -8 62 8 27 14 50 14
52 0 1 2 16 6 32 6 27 10 30 46 30 36 0 39 -2 35 -22z m1720 -5 c3 -16 12 -52
20 -82 7 -30 11 -57 9 -60 -2 -5 -44 -6 -76 -2 -5 1 -13 36 -19 83 -1 4 -5 22
-10 39 -12 41 -6 49 35 49 30 0 36 -4 41 -27z m54 10 c4 -5 16 -43 27 -85 18
-70 19 -78 4 -78 -32 0 -45 20 -57 87 -3 16 -9 42 -13 60 -8 29 -7 31 12 27
11 -2 24 -7 27 -11z m-1945 -66 c-18 -79 -25 -97 -35 -97 -7 0 25 144 37 163
13 21 12 -6 -2 -66z m433 -10 l-11 -77 -69 0 c-64 0 -68 1 -68 23 0 12 4 27 8
33 9 14 143 106 148 102 1 -2 -2 -38 -8 -81z m1552 64 c0 -11 9 -48 20 -82 17
-58 19 -81 4 -67 -5 6 -43 145 -44 161 0 4 5 7 10 7 6 0 10 -9 10 -19z m-180
-43 c6 -29 13 -63 16 -75 6 -22 3 -23 -49 -23 -41 0 -56 4 -61 16 -14 36 -5
60 37 96 23 20 43 37 44 38 1 0 6 -24 13 -52z m-444 11 c10 -110 12 -102 -26
-107 -49 -5 -51 -12 -3 -12 37 0 40 -2 41 -28 0 -24 -10 -34 -82 -80 -46 -29
-86 -52 -90 -52 -3 0 -6 36 -6 80 l0 80 33 1 c26 0 28 2 12 8 -11 5 -26 6 -33
3 -10 -3 -13 4 -10 28 3 28 11 36 73 70 39 21 74 38 79 36 5 -1 10 -13 12 -27z
m334 -79 c0 -29 -2 -30 -42 -30 l-42 0 34 30 c44 37 50 37 50 0z m-516 -22
c-3 -4 -23 -6 -45 -6 l-40 0 38 23 c34 21 39 22 44 7 4 -9 5 -20 3 -24z m-906
15 c-2 -12 -14 -19 -33 -21 l-30 -3 25 20 c31 25 42 26 38 4z m-16 -42 c5 -1
6 -29 4 -63 -2 -35 -5 -75 -5 -90 -1 -27 -3 -28 -60 -28 l-59 0 5 73 c7 91 28
118 87 111 11 -1 24 -3 28 -3z m159 -9 c1 -10 1 -20 1 -23 -1 -3 -2 -38 -3
-77 l-2 -72 -72 0 -71 0 4 88 c2 48 8 89 13 93 5 3 36 5 69 6 49 1 60 -2 61
-15z m179 -54 c-3 -120 1 -115 -92 -117 l-79 -2 5 78 c2 43 5 85 5 94 1 12 17
16 82 17 l80 3 -1 -73z m91 55 c1 -10 1 -27 0 -38 l-1 -20 9 20 c5 11 7 28 5
38 -2 14 5 17 42 17 44 0 44 0 44 -34 0 -32 -6 -38 -85 -90 -47 -31 -88 -56
-91 -56 -2 0 -4 41 -3 90 l1 90 39 0 c30 0 39 -4 40 -17z m194 9 c-6 -5 -27
-19 -47 -31 l-38 -23 0 31 c0 30 1 31 47 31 26 0 43 -4 38 -8z m303 -81 c3
-103 8 -98 -108 -97 l-75 1 -3 72 -2 72 37 20 c24 13 58 20 94 21 l55 0 2 -89z
m242 69 c-32 -25 -40 -25 -40 0 0 16 7 20 33 20 l32 0 -25 -20z m275 6 c2 -6
6 -47 9 -92 l5 -80 -72 0 -72 1 -3 78 c-2 45 2 84 8 91 13 17 120 18 125 2z
m131 -16 c5 -102 6 -136 5 -145 0 -6 -26 -11 -56 -12 -53 -1 -55 0 -55 26 0
14 -3 55 -6 91 l-6 65 58 0 c55 -1 59 -2 60 -25z m98 1 c3 -9 6 -47 8 -86 l3
-70 -42 -1 c-38 -2 -43 1 -43 20 -1 11 -3 53 -6 91 l-6 71 41 -4 c26 -3 42
-10 45 -21z m-1961 -38 c-6 -67 -12 -93 -21 -93 -8 0 -8 13 4 108 7 58 23 44
17 -15z m67 18 c0 -33 -5 -43 -30 -61 l-30 -21 4 38 c3 21 5 48 5 61 1 17 7
22 26 22 22 0 25 -4 25 -39z m100 35 c0 -4 -78 -56 -84 -56 -4 0 -1 41 3 58 1
4 81 2 81 -2z m1860 -8 c1 -7 3 -45 6 -84 6 -68 5 -72 -16 -79 -12 -4 -23 -5
-25 -3 -2 2 -7 37 -10 78 -4 41 -8 81 -10 88 -3 8 6 12 25 12 17 0 30 -5 30
-12z m39 -76 c1 -42 -1 -63 -7 -57 -11 11 -23 131 -14 140 12 11 19 -18 21
-83z m-481 -15 l2 -73 -82 1 c-76 0 -83 2 -83 20 0 14 24 37 75 73 41 28 77
52 80 52 3 0 6 -33 8 -73z m-1423 21 c-2 -24 -4 -55 -4 -70 -1 -26 -4 -28 -45
-28 -37 0 -44 3 -41 18 2 9 4 26 4 37 1 16 72 85 87 85 2 0 1 -19 -1 -42z
m855 -26 l0 -68 -95 0 c-66 0 -95 4 -95 12 0 8 170 121 188 124 1 0 2 -31 2
-68z m-958 -47 c-3 -18 -11 -25 -28 -25 -28 0 -30 7 -7 32 24 26 41 23 35 -7z
m1346 -7 c-3 -7 -13 -15 -24 -17 -16 -3 -17 -1 -5 13 16 19 34 21 29 4z
m-1409 -90 c1 -29 4 -65 6 -80 2 -16 -1 -30 -6 -34 -5 -3 -9 -2 -10 3 -5 59
-10 104 -13 130 -2 18 -1 34 2 37 12 12 19 -6 21 -56z m61 60 c0 -2 3 -42 7
-90 l6 -88 -27 0 c-18 0 -26 5 -26 18 0 9 -3 50 -6 90 l-6 72 26 0 c14 0 26
-1 26 -2z m101 -30 c1 -18 3 -59 5 -90 l4 -58 -39 0 c-44 0 -47 4 -50 75 -1
28 -4 62 -7 78 -5 26 -4 27 40 27 45 0 46 -1 47 -32z m130 5 c0 -16 3 -55 5
-87 6 -67 0 -75 -52 -70 -19 1 -34 -1 -34 -6 0 -5 21 -10 47 -12 25 -2 48 -8
50 -14 4 -11 -75 -94 -88 -94 -7 0 -22 61 -24 100 -1 14 -4 36 -8 50 -4 14 -8
55 -10 93 l-4 67 59 0 c56 0 58 -1 59 -27z m156 -38 l3 -60 -43 -32 c-29 -22
-51 -31 -67 -28 -12 2 -24 6 -25 7 -2 2 -5 43 -7 91 l-4 88 70 -3 71 -3 2 -60z
m158 57 c-20 -17 -91 -70 -116 -86 l-26 -16 -2 55 -2 55 78 0 c42 0 73 -4 68
-8z m215 -87 l0 -96 -87 3 -88 3 -3 50 -3 50 68 43 c37 23 77 42 90 42 22 0
23 -2 23 -95z m198 48 l-3 -48 -85 -47 c-47 -26 -88 -48 -92 -48 -5 0 -8 43
-8 95 l0 95 96 0 95 0 -3 -47z m92 7 c-36 -21 -68 -39 -72 -40 -5 0 -8 18 -8
40 l0 40 73 0 72 0 -65 -40z m298 -52 l-3 -93 -87 -3 -88 -4 0 61 0 61 53 35
c35 23 64 34 90 34 l38 1 -3 -92z m179 0 c-4 -51 -6 -94 -7 -94 0 -1 -33 -1
-74 -1 l-75 0 -3 93 -3 94 84 0 83 0 -5 -92z m155 5 c-2 -49 -6 -90 -8 -92 -6
-6 -108 -10 -127 -5 -9 3 -15 9 -12 13 2 5 5 45 6 90 l1 81 73 0 72 0 -5 -87z
m134 60 c-2 -16 -5 -40 -5 -55 -1 -20 -13 -35 -51 -62 -28 -20 -55 -36 -61
-36 -7 0 -9 21 -5 63 2 34 5 74 5 90 1 26 2 27 61 27 61 0 61 0 56 -27z m94 7
c-10 -18 -71 -70 -83 -70 -3 0 -4 8 -2 18 2 9 4 29 4 45 1 25 4 27 46 27 42 0
45 -1 35 -20z m103 -27 c-2 -27 -6 -59 -8 -73 -2 -14 -4 -33 -4 -43 -1 -10 -6
-15 -11 -12 -6 3 -8 18 -6 33 3 15 6 50 7 77 2 53 6 65 18 65 4 0 6 -21 4 -47z
m-2104 -58 c1 -28 8 -78 17 -110 8 -33 16 -69 19 -79 9 -40 28 -92 46 -127
l18 -35 -50 -51 c-48 -49 -53 -52 -137 -67 -157 -29 -265 -17 -291 33 -36 67
50 213 238 400 137 136 136 136 140 36z m2067 28 c-3 -32 -5 -68 -6 -80 0 -18
-6 -23 -28 -23 l-28 0 7 65 c5 47 12 70 25 80 32 24 36 17 30 -42z m-70 -45
c-3 -29 -6 -54 -6 -55 0 -2 -18 -3 -40 -3 -37 0 -40 2 -40 28 1 20 11 34 38
54 20 14 41 27 46 27 4 1 6 -23 2 -51z m-748 -13 l-2 -55 -96 0 -95 0 90 54
c50 30 93 55 97 55 4 1 7 -24 6 -54z m-592 -40 c-5 -13 -116 -19 -116 -6 0 3
26 23 58 43 l57 38 3 -31 c2 -17 1 -37 -2 -44z m1241 16 c1 -15 -6 -20 -34
-23 l-36 -4 29 23 c35 28 39 28 41 4z m-1847 -73 c6 -24 15 -59 21 -78 12 -45
12 -57 0 -44 -5 5 -17 37 -25 71 -9 34 -19 69 -22 78 -3 8 -1 15 5 15 5 0 15
-19 21 -42z m73 -28 c10 -36 15 -77 13 -92 -4 -18 0 -28 11 -32 15 -6 15 -8
-1 -24 -15 -15 -18 -15 -26 -2 -5 8 -8 21 -5 29 3 7 -1 19 -9 25 -12 10 -46
125 -46 156 0 6 10 10 22 8 19 -2 26 -15 41 -68z m72 61 c6 -1 17 -29 24 -63
13 -62 13 -63 -14 -85 -14 -13 -30 -23 -34 -23 -5 0 -16 30 -25 68 -9 37 -19
77 -22 89 -5 19 -3 21 28 18 18 -2 38 -4 43 -4z m1690 -3 c3 -2 -3 -40 -13
-84 l-18 -79 -47 -3 c-26 -2 -47 -7 -47 -12 0 -4 20 -7 45 -4 l44 3 -29 -80
c-17 -44 -30 -81 -30 -82 0 -1 -23 -3 -51 -4 -35 -1 -49 2 -46 10 2 7 12 35
21 64 17 51 18 52 64 60 l47 8 -41 5 -40 5 14 85 c8 47 18 90 24 97 14 17 89
26 103 11z m102 -2 c-3 -7 -10 -38 -17 -71 -17 -84 -25 -95 -65 -95 -19 0 -35
2 -35 6 0 18 34 151 41 160 12 14 81 14 76 0z m48 -68 c-19 -71 -25 -83 -47
-89 -25 -6 -25 -6 -16 35 5 22 12 51 14 63 10 52 24 73 47 73 l24 0 -22 -82z
m33 5 c-11 -43 -25 -82 -29 -87 -12 -13 -11 13 1 50 5 16 14 48 20 72 6 23 15
42 20 42 4 0 -1 -35 -12 -77z m-1688 63 c0 -2 -7 -6 -15 -10 -8 -3 -15 -1 -15
4 0 6 7 10 15 10 8 0 15 -2 15 -4z m281 -3 c0 -5 2 -26 4 -48 l4 -40 -66 -30
c-36 -16 -69 -31 -73 -33 -4 -2 -11 19 -15 45 -3 26 -9 63 -11 81 l-5 32 80 0
c45 0 81 -3 82 -7z m139 -19 c-48 -28 -112 -56 -116 -52 -2 3 -7 59 -5 71 1 4
38 7 84 7 l82 0 -45 -26z m250 -64 l0 -91 -87 3 -88 3 0 45 0 45 80 42 c44 23
83 42 88 43 4 0 7 -41 7 -90z m192 13 c-1 -43 -5 -84 -7 -90 -3 -9 -30 -13
-89 -13 l-84 0 -1 81 c0 45 1 84 4 88 2 4 44 8 92 9 l88 2 -3 -77z m193 60
c-2 -10 -7 -35 -10 -55 -4 -25 -18 -50 -42 -73 -31 -30 -42 -35 -86 -35 l-49
0 5 73 c4 39 6 80 7 90 0 15 11 17 89 17 80 0 89 -2 86 -17z m169 -35 c-4 -34
-14 -62 -27 -78 -16 -17 -17 -20 -4 -10 17 13 19 12 15 -10 -2 -19 -8 -24 -23
-22 -43 8 -90 71 -101 136 l-5 36 75 0 75 0 -5 -52z m156 49 c0 -6 -141 -100
-144 -96 -3 2 -2 25 1 52 l6 47 68 0 c38 0 69 -1 69 -3z m-1260 -91 c6 -38 8
-71 5 -75 -4 -3 -33 -6 -66 -6 l-59 -1 -6 33 c-4 19 -5 35 -3 37 67 53 112 86
115 84 2 -2 8 -34 14 -72z m1256 47 c-7 -26 -20 -107 -18 -114 2 -10 -26 -14
-83 -14 -49 0 -50 0 -48 30 1 16 7 31 12 33 5 2 36 21 68 42 66 44 76 47 69
23z m-898 -96 l3 -37 -82 0 c-45 0 -79 3 -75 7 14 14 131 71 141 69 6 -2 11
-19 13 -39z m-498 -6 c0 -25 -9 -29 -40 -22 l-24 7 24 17 c32 22 40 21 40 -2z
m-256 -58 c9 -18 13 -33 8 -33 -9 0 -32 44 -32 62 0 15 4 10 24 -29z m1866
-51 c-24 -53 -37 -71 -55 -74 -20 -4 -22 -2 -15 16 30 77 53 123 67 134 33 24
34 -6 3 -76z m29 5 c-17 -37 -35 -69 -39 -72 -5 -3 8 31 28 76 20 44 38 77 39
72 2 -5 -11 -40 -28 -76z m-1648 64 c9 -1 20 -8 23 -17 4 -11 -6 -20 -36 -34
-48 -21 -53 -20 -62 16 -8 30 3 42 37 38 12 -1 29 -3 38 -3z m1586 -3 c-57
-146 -59 -148 -95 -148 -32 0 -34 2 -28 25 4 14 17 50 31 80 23 52 26 55 61
55 25 0 35 -4 31 -12z m-1487 -2 c0 -2 -13 -9 -29 -14 -23 -8 -31 -7 -35 4 -4
10 3 14 29 14 19 0 35 -2 35 -4z m233 -13 c3 -10 8 -36 11 -58 4 -22 9 -52 12
-66 l5 -26 -72 1 -73 1 -11 58 c-6 31 -11 57 -11 57 1 0 28 11 61 25 72 30 72
30 78 8z m174 3 c4 -4 8 -24 10 -44 1 -20 4 -54 6 -75 l4 -38 -76 3 -76 3 -12
55 c-6 30 -12 67 -12 82 l-1 28 75 -3 c41 -2 78 -6 82 -11z m193 -73 l0 -83
-80 0 c-57 0 -80 4 -81 13 0 6 -3 42 -8 79 -4 38 -3 69 2 71 5 1 44 2 88 2
l79 0 0 -82z m90 63 c30 -2 63 -5 73 -5 13 -1 17 -10 17 -38 0 -84 -22 -103
-115 -103 l-55 0 0 69 c0 72 8 110 19 92 4 -5 31 -12 61 -15z m578 17 c-10 -2
-26 -2 -35 0 -10 3 -2 5 17 5 19 0 27 -2 18 -5z m-1454 -29 c11 -30 6 -42 -23
-52 -40 -14 -51 12 -20 45 26 27 35 29 43 7z m1072 -15 c57 -27 67 -40 58 -83
l-6 -36 -72 0 c-40 0 -76 3 -80 7 -4 4 3 15 16 25 17 14 18 17 5 12 -17 -6
-18 -2 -16 37 1 24 4 47 6 52 7 13 46 7 89 -14z m381 9 c-3 -7 -14 -37 -23
-65 l-18 -53 -58 0 c-64 0 -64 1 -46 64 17 61 24 66 90 66 44 0 58 -3 55 -12z
m-159 -55 c-6 -27 -14 -52 -19 -57 -8 -9 -69 -17 -69 -9 0 27 70 113 91 113 4
0 2 -21 -3 -47z m-1018 -3 c6 -23 8 -49 5 -59 -3 -11 0 -21 8 -24 11 -4 57
-109 57 -131 0 -3 -23 -5 -50 -3 l-50 3 -34 67 c-19 37 -31 69 -28 71 4 2 24
3 45 2 20 -2 37 1 37 6 0 4 -22 8 -49 8 -44 0 -49 2 -55 26 -4 15 -5 28 -4 30
6 5 92 44 100 44 4 0 12 -18 18 -40z m-345 -1 c-8 -12 -35 -12 -35 0 0 11 22
20 33 14 4 -2 5 -9 2 -14z m215 -28 c15 -29 14 -29 -35 -29 -56 0 -66 13 -23
32 44 19 46 19 58 -3z m1011 -34 c-15 -15 -24 -2 -16 24 7 20 8 21 17 5 7 -12
7 -21 -1 -29z m458 -62 c-40 -59 -65 -82 -76 -71 -7 7 82 135 97 139 27 6 24
-2 -21 -68z m-1565 54 c14 -18 76 -132 73 -136 -3 -2 -17 -1 -31 3 -18 4 -39
25 -62 62 -51 79 -52 83 -15 78 18 -2 33 -5 35 -7z m1542 -4 c-3 -9 -23 -41
-45 -73 -31 -46 -45 -58 -65 -58 -14 0 -26 1 -26 2 0 6 75 130 82 134 4 3 19
7 34 8 20 1 25 -2 20 -13z m-1604 -27 c14 -18 33 -48 42 -65 28 -56 -7 -40
-49 22 -39 56 -52 69 -40 38 5 -14 4 -15 -6 -6 -10 10 -9 15 1 28 18 21 24 19
52 -17z m206 -38 l32 -65 -37 -3 c-41 -4 -43 -2 -96 90 l-28 49 48 -3 48 -3
33 -65z m1203 51 c-4 -9 -18 -38 -31 -66 -13 -27 -28 -53 -33 -56 -10 -7 -97
-11 -97 -4 0 9 43 121 50 130 5 6 33 11 64 11 48 1 54 -1 47 -15z m116 12 c-2
-5 -20 -36 -40 -69 -33 -55 -41 -62 -75 -66 -20 -3 -38 -4 -40 -3 -4 4 47 116
60 133 11 13 102 17 95 5z m-1051 -48 c6 -22 14 -54 18 -70 l6 -30 -61 5 -61
5 -18 45 c-38 98 -41 91 36 88 l68 -3 12 -40z m149 36 c2 -4 7 -30 10 -57 7
-49 6 -51 -23 -63 -17 -7 -45 -13 -64 -14 -33 -2 -33 -1 -50 63 -10 36 -18 69
-18 73 0 9 139 7 145 -2z m175 -16 c0 -17 -14 -28 -71 -54 -39 -18 -72 -31
-74 -29 -1 2 -5 26 -9 54 l-6 51 80 0 c76 1 80 -1 80 -22z m75 17 c-6 -4 -22
-13 -37 -20 -22 -9 -28 -9 -28 2 0 18 5 21 42 24 19 2 28 -1 23 -6z m89 -46
c-4 -28 -8 -58 -10 -66 -1 -8 -3 -18 -3 -22 -1 -3 -31 -6 -68 -5 l-68 2 0 44
c0 43 1 45 52 71 29 15 64 28 78 28 25 0 25 -2 19 -52z m166 42 c0 -7 -8 -40
-18 -72 l-18 -60 -59 0 c-33 -1 -61 4 -63 9 -2 6 0 38 4 73 l6 62 74 0 c53 0
74 -4 74 -12z m62 -48 c1 -33 2 -65 0 -70 -3 -9 -82 -15 -82 -7 0 4 29 104 35
125 3 6 13 12 24 12 17 0 20 -8 23 -60z m91 48 c-4 -7 -17 -37 -28 -67 -30
-82 -47 -79 -44 8 l2 71 39 0 c29 0 37 -3 31 -12z m-1339 -38 c15 -23 31 -38
35 -35 5 2 15 -3 22 -13 13 -15 12 -16 -3 -3 -10 7 -18 9 -18 3 0 -5 43 -50
95 -100 l94 -91 -87 -19 c-119 -28 -159 -33 -233 -33 -183 -1 -213 65 -105
229 38 58 45 64 101 81 33 11 63 20 66 20 4 1 18 -17 33 -39z m856 -58 l0 -39
-70 0 c-38 0 -70 3 -70 7 0 6 119 68 133 69 4 1 7 -16 7 -37z m-676 -82 c32
-33 54 -60 49 -60 -13 0 -34 18 -83 73 -61 68 -35 58 34 -13z m1406 23 c-42
-49 -80 -83 -94 -83 -9 0 71 91 99 112 27 20 24 4 -5 -29z m-1336 -27 c25 -29
46 -56 46 -59 0 -6 -42 -1 -44 5 0 2 -23 27 -51 56 -48 50 -48 52 -23 52 20 0
38 -14 72 -54z m60 42 c1 -2 14 -20 29 -40 32 -44 33 -54 7 -61 -22 -6 -37 7
-91 75 l-30 37 42 -4 c23 -2 42 -5 43 -7z m1174 1 c-2 -6 -21 -32 -43 -59 -30
-35 -48 -49 -72 -52 -18 -2 -33 -2 -33 0 0 2 17 28 38 57 28 41 44 55 67 58
17 2 34 5 38 5 5 1 7 -3 5 -9z m37 -41 c-28 -29 -51 -54 -51 -56 -2 -5 -44
-11 -44 -6 0 3 19 29 43 59 33 43 48 54 72 54 l29 1 -49 -52z m-1080 13 c16
-31 14 -34 -27 -50 -23 -9 -29 -5 -57 35 l-32 44 50 0 c46 0 52 -3 66 -29z
m122 15 c6 -6 -63 -36 -83 -36 -11 0 -34 29 -34 43 0 6 111 0 117 -7z m691 1
c7 -5 12 -3 12 4 0 7 2 10 5 7 3 -2 -9 -30 -26 -61 l-31 -57 -48 0 -48 0 20
52 c11 29 24 55 29 58 13 8 72 6 87 -3z m111 -34 c-19 -26 -38 -52 -44 -58
-10 -11 -85 -20 -85 -10 0 3 13 29 30 58 30 53 30 53 81 56 l51 2 -33 -48z
m-655 20 c2 -10 7 -37 11 -60 l7 -42 -53 3 c-51 2 -53 4 -70 42 l-16 39 31 17
c41 23 83 23 90 1z m144 -40 l-3 -58 -54 0 c-59 0 -57 -2 -74 83 l-6 32 70 0
70 0 -3 -57z m144 39 c-8 -39 -11 -59 -11 -78 -1 -19 -7 -21 -58 -20 l-58 1
-2 58 -3 58 68 -3 c48 -2 66 -7 64 -16z m127 -34 c-11 -29 -23 -55 -25 -57 -8
-8 -104 -7 -104 0 0 5 5 31 11 59 l11 50 64 0 64 0 -21 -52z m-533 -23 c7 -19
14 -36 14 -37 0 -2 -21 -2 -47 0 -30 2 -53 10 -61 20 -11 15 -8 19 25 34 52
23 52 23 69 -17z m-106 -26 c0 -12 -37 -12 -45 0 -3 5 3 11 12 13 21 5 33 0
33 -13z m846 -53 c-46 -42 -86 -63 -86 -47 0 15 77 80 100 84 14 2 27 5 30 5
3 1 -17 -18 -44 -42z m100 29 c-1 -8 -8 -21 -16 -28 -12 -10 -12 -9 -1 6 20
25 4 21 -38 -11 -20 -16 -45 -32 -56 -36 -23 -8 -19 -3 43 48 46 38 72 46 68
21z m-989 -34 c35 -32 40 -40 25 -43 -11 -3 -36 11 -67 39 -45 39 -47 43 -25
43 15 -1 43 -17 67 -39z m76 10 c16 -14 33 -34 38 -44 9 -15 6 -17 -21 -15
-20 2 -43 16 -72 45 l-43 44 35 -2 c21 -2 46 -12 63 -28z m89 20 c7 -1 48 -74
48 -84 0 -2 -16 -1 -36 2 -26 4 -46 17 -70 46 l-33 40 42 -1 c23 -1 45 -2 49
-3z m588 -1 c0 -3 -13 -22 -30 -42 -21 -26 -39 -37 -65 -40 -19 -2 -35 -2 -35
1 0 2 11 23 24 45 22 38 28 41 65 41 23 0 41 -2 41 -5z m58 -35 c-31 -30 -56
-45 -73 -45 l-26 0 23 31 c13 17 27 37 33 45 6 8 27 14 50 14 l40 0 -47 -45z
m-873 -1 c22 -20 32 -33 21 -30 -22 7 -75 48 -75 59 -2 15 15 6 54 -29z m359
9 c4 -16 9 -36 12 -45 4 -15 -1 -17 -33 -15 -30 3 -43 10 -60 37 -13 18 -23
37 -23 41 0 5 22 9 49 9 45 0 49 -2 55 -27z m116 -15 l0 -43 -40 -2 c-43 -3
-44 -2 -64 65 -7 21 -5 22 48 22 l56 0 0 -42z m116 25 c-3 -10 -8 -30 -11 -44
-6 -22 -11 -25 -48 -25 l-42 1 -1 43 -2 42 55 0 c47 0 54 -2 49 -17z m99 -25
c-22 -38 -28 -42 -65 -43 -32 -1 -39 2 -35 15 2 8 7 27 11 43 6 25 10 27 60
27 l53 0 -24 -42z m-529 -69 c47 -29 42 -34 -8 -8 -51 25 -56 29 -38 29 7 0
28 -9 46 -21z m53 9 c10 -10 15 -10 18 -1 7 18 55 5 83 -23 24 -23 24 -24 4
-24 -12 0 -33 9 -47 20 -14 11 -29 20 -33 20 -4 0 1 -9 11 -20 10 -11 14 -20
10 -20 -11 0 -95 49 -95 55 0 10 37 4 49 -7z m504 5 c4 -3 -7 -16 -24 -29 -22
-16 -45 -22 -84 -23 -54 0 -54 0 -43 24 9 20 19 25 47 25 27 0 32 -3 23 -12
-22 -22 -12 -32 11 -11 30 28 58 38 70 26z m67 -2 c0 -5 -7 -12 -16 -15 -9 -4
-14 -9 -11 -12 3 -4 21 3 40 15 19 11 41 21 48 21 22 -1 -63 -43 -91 -45 -14
-2 -34 -6 -45 -10 -13 -4 -7 5 15 24 35 30 60 39 60 22z m-392 -26 c11 -23 10
-25 -16 -25 -17 1 -34 10 -45 25 l-18 25 34 0 c26 0 36 -5 45 -25z m80 -2 c-2
-16 -8 -27 -15 -25 -7 1 -13 -2 -13 -8 0 -6 7 -10 15 -10 8 0 15 -4 15 -10 0
-18 -29 -10 -35 10 -3 11 -10 20 -14 20 -4 0 -13 11 -19 25 -11 24 -11 25 29
25 38 0 40 -2 37 -27z m80 2 c-6 -14 -15 -26 -20 -26 -37 -6 -43 -2 -46 24 -3
25 -1 27 37 27 40 0 40 -1 29 -25z m-138 -50 c11 -13 10 -14 -4 -9 -9 3 -16
10 -16 15 0 13 6 11 20 -6z m103 -1 c-4 -13 -26 -11 -30 3 -2 6 4 10 14 9 10
-2 17 -7 16 -12z m57 11 c0 -2 -9 -9 -20 -15 -12 -6 -20 -7 -20 -1 0 5 8 12
18 14 9 3 18 5 20 6 1 0 2 -1 2 -4z"/>
</g>
</svg>
